<mxfile host="app.diagrams.net" modified="2022-02-26T04:20:57.926Z" agent="5.0 (Macintosh; Intel Mac OS X 10_15_7) AppleWebKit/605.1.15 (KHTML, like Gecko) Version/14.1.1 Safari/605.1.15" etag="g5J9JS9HaG4K459FJiDm" version="16.6.4" type="github">
  <diagram id="R2lEEEUBdFMjLlhIrx00" name="Page-1">
    <mxGraphModel dx="1535" dy="2247" grid="1" gridSize="10" guides="1" tooltips="1" connect="1" arrows="1" fold="1" page="1" pageScale="1" pageWidth="850" pageHeight="1100" math="0" shadow="0" extFonts="Permanent Marker^https://fonts.googleapis.com/css?family=Permanent+Marker">
      <root>
        <mxCell id="0" />
        <mxCell id="1" parent="0" />
        <mxCell id="pdIDnBIP7ym01zkuTRVu-2" value="Client" style="rounded=0;whiteSpace=wrap;html=1;hachureGap=4;" vertex="1" parent="1">
          <mxGeometry x="470" y="40" width="160" height="80" as="geometry" />
        </mxCell>
        <mxCell id="pdIDnBIP7ym01zkuTRVu-3" value="Services" style="rounded=0;whiteSpace=wrap;html=1;hachureGap=4;" vertex="1" parent="1">
          <mxGeometry x="460" y="410" width="160" height="80" as="geometry" />
        </mxCell>
        <mxCell id="pdIDnBIP7ym01zkuTRVu-10" value="Pay Rate" style="ellipse;whiteSpace=wrap;html=1;hachureGap=4;" vertex="1" parent="1">
          <mxGeometry x="10" y="30" width="90" height="60" as="geometry" />
        </mxCell>
        <mxCell id="pdIDnBIP7ym01zkuTRVu-14" value="Job Title" style="ellipse;whiteSpace=wrap;html=1;hachureGap=4;" vertex="1" parent="1">
          <mxGeometry x="30" y="125" width="90" height="60" as="geometry" />
        </mxCell>
        <mxCell id="pdIDnBIP7ym01zkuTRVu-32" value="Price" style="ellipse;whiteSpace=wrap;html=1;hachureGap=4;" vertex="1" parent="1">
          <mxGeometry x="505" y="330" width="90" height="60" as="geometry" />
        </mxCell>
        <mxCell id="pdIDnBIP7ym01zkuTRVu-33" value="S_Type" style="ellipse;whiteSpace=wrap;html=1;hachureGap=4;" vertex="1" parent="1">
          <mxGeometry x="620" y="330" width="90" height="60" as="geometry" />
        </mxCell>
        <mxCell id="pdIDnBIP7ym01zkuTRVu-34" value="" style="endArrow=none;html=1;rounded=0;startSize=14;endSize=14;sourcePerimeterSpacing=8;targetPerimeterSpacing=8;curved=1;" edge="1" parent="1">
          <mxGeometry width="50" height="50" relative="1" as="geometry">
            <mxPoint x="645" y="370" as="sourcePoint" />
            <mxPoint x="685" y="370" as="targetPoint" />
          </mxGeometry>
        </mxCell>
        <mxCell id="pdIDnBIP7ym01zkuTRVu-35" value="" style="endArrow=none;html=1;rounded=0;startSize=14;endSize=14;sourcePerimeterSpacing=8;targetPerimeterSpacing=8;curved=1;entryX=0.222;entryY=0.967;entryDx=0;entryDy=0;entryPerimeter=0;" edge="1" parent="1" target="pdIDnBIP7ym01zkuTRVu-33">
          <mxGeometry width="50" height="50" relative="1" as="geometry">
            <mxPoint x="620" y="410" as="sourcePoint" />
            <mxPoint x="670" y="360" as="targetPoint" />
          </mxGeometry>
        </mxCell>
        <mxCell id="pdIDnBIP7ym01zkuTRVu-36" value="" style="endArrow=none;html=1;rounded=0;startSize=14;endSize=14;sourcePerimeterSpacing=8;targetPerimeterSpacing=8;curved=1;entryX=0.5;entryY=1;entryDx=0;entryDy=0;" edge="1" parent="1" target="pdIDnBIP7ym01zkuTRVu-32">
          <mxGeometry width="50" height="50" relative="1" as="geometry">
            <mxPoint x="540" y="410" as="sourcePoint" />
            <mxPoint x="590" y="360" as="targetPoint" />
          </mxGeometry>
        </mxCell>
        <mxCell id="pdIDnBIP7ym01zkuTRVu-38" value="&quot;Specialze in&quot;" style="rhombus;whiteSpace=wrap;html=1;hachureGap=4;" vertex="1" parent="1">
          <mxGeometry x="320" y="210" width="60" height="60" as="geometry" />
        </mxCell>
        <mxCell id="pdIDnBIP7ym01zkuTRVu-40" value="" style="endArrow=none;html=1;rounded=0;startSize=14;endSize=14;sourcePerimeterSpacing=8;targetPerimeterSpacing=8;curved=1;entryX=0;entryY=0;entryDx=0;entryDy=0;exitX=0.829;exitY=1.001;exitDx=0;exitDy=0;exitPerimeter=0;" edge="1" parent="1" source="pdIDnBIP7ym01zkuTRVu-4" target="pdIDnBIP7ym01zkuTRVu-38">
          <mxGeometry width="50" height="50" relative="1" as="geometry">
            <mxPoint x="270" y="160" as="sourcePoint" />
            <mxPoint x="320" y="110" as="targetPoint" />
          </mxGeometry>
        </mxCell>
        <mxCell id="pdIDnBIP7ym01zkuTRVu-43" value="" style="endArrow=none;html=1;rounded=0;startSize=14;endSize=14;sourcePerimeterSpacing=8;targetPerimeterSpacing=8;curved=1;entryX=0.125;entryY=0;entryDx=0;entryDy=0;entryPerimeter=0;exitX=1;exitY=1;exitDx=0;exitDy=0;" edge="1" parent="1" source="pdIDnBIP7ym01zkuTRVu-38" target="pdIDnBIP7ym01zkuTRVu-3">
          <mxGeometry width="50" height="50" relative="1" as="geometry">
            <mxPoint x="375" y="285" as="sourcePoint" />
            <mxPoint x="425" y="235" as="targetPoint" />
          </mxGeometry>
        </mxCell>
        <mxCell id="pdIDnBIP7ym01zkuTRVu-62" value="" style="endArrow=none;html=1;rounded=0;startSize=14;endSize=14;sourcePerimeterSpacing=8;targetPerimeterSpacing=8;curved=1;entryX=0.978;entryY=0.783;entryDx=0;entryDy=0;entryPerimeter=0;exitX=-0.006;exitY=0.633;exitDx=0;exitDy=0;exitPerimeter=0;" edge="1" parent="1" source="pdIDnBIP7ym01zkuTRVu-4" target="pdIDnBIP7ym01zkuTRVu-10">
          <mxGeometry width="50" height="50" relative="1" as="geometry">
            <mxPoint x="110" y="80" as="sourcePoint" />
            <mxPoint x="160" y="30" as="targetPoint" />
          </mxGeometry>
        </mxCell>
        <mxCell id="pdIDnBIP7ym01zkuTRVu-94" value="Schedule" style="rounded=0;whiteSpace=wrap;html=1;hachureGap=4;" vertex="1" parent="1">
          <mxGeometry x="930" y="600" width="160" height="80" as="geometry" />
        </mxCell>
        <mxCell id="pdIDnBIP7ym01zkuTRVu-99" value="" style="endArrow=none;html=1;rounded=0;startSize=14;endSize=14;sourcePerimeterSpacing=8;targetPerimeterSpacing=8;curved=1;entryX=1.013;entryY=0.888;entryDx=0;entryDy=0;entryPerimeter=0;" edge="1" parent="1" target="pdIDnBIP7ym01zkuTRVu-94">
          <mxGeometry width="50" height="50" relative="1" as="geometry">
            <mxPoint x="1130" y="700" as="sourcePoint" />
            <mxPoint x="1180" y="650" as="targetPoint" />
          </mxGeometry>
        </mxCell>
        <mxCell id="pdIDnBIP7ym01zkuTRVu-109" value="s_ID" style="ellipse;whiteSpace=wrap;html=1;hachureGap=4;" vertex="1" parent="1">
          <mxGeometry x="1120" y="690" width="90" height="60" as="geometry" />
        </mxCell>
        <mxCell id="pdIDnBIP7ym01zkuTRVu-113" value="" style="endArrow=none;html=1;rounded=0;startSize=14;endSize=14;sourcePerimeterSpacing=8;targetPerimeterSpacing=8;curved=1;" edge="1" parent="1">
          <mxGeometry width="50" height="50" relative="1" as="geometry">
            <mxPoint x="1145" y="730.02" as="sourcePoint" />
            <mxPoint x="1185" y="730" as="targetPoint" />
          </mxGeometry>
        </mxCell>
        <mxCell id="pdIDnBIP7ym01zkuTRVu-118" value="Person" style="rounded=0;whiteSpace=wrap;html=1;hachureGap=4;" vertex="1" parent="1">
          <mxGeometry x="290" y="-240" width="160" height="80" as="geometry" />
        </mxCell>
        <mxCell id="pdIDnBIP7ym01zkuTRVu-119" value="" style="triangle;whiteSpace=wrap;html=1;hachureGap=4;rotation=90;" vertex="1" parent="1">
          <mxGeometry x="340" y="-100" width="60" height="80" as="geometry" />
        </mxCell>
        <mxCell id="pdIDnBIP7ym01zkuTRVu-121" value="SD" style="text;strokeColor=none;fillColor=none;html=1;align=center;verticalAlign=middle;whiteSpace=wrap;rounded=0;hachureGap=4;" vertex="1" parent="1">
          <mxGeometry x="340" y="-80" width="60" height="30" as="geometry" />
        </mxCell>
        <mxCell id="pdIDnBIP7ym01zkuTRVu-123" value="Name" style="ellipse;whiteSpace=wrap;html=1;hachureGap=4;" vertex="1" parent="1">
          <mxGeometry x="470" y="-260" width="90" height="60" as="geometry" />
        </mxCell>
        <mxCell id="pdIDnBIP7ym01zkuTRVu-124" value="Phone" style="ellipse;whiteSpace=wrap;html=1;hachureGap=4;" vertex="1" parent="1">
          <mxGeometry x="470" y="-180" width="90" height="60" as="geometry" />
        </mxCell>
        <mxCell id="pdIDnBIP7ym01zkuTRVu-125" value="Email" style="ellipse;whiteSpace=wrap;html=1;hachureGap=4;" vertex="1" parent="1">
          <mxGeometry x="170" y="-260" width="90" height="60" as="geometry" />
        </mxCell>
        <mxCell id="pdIDnBIP7ym01zkuTRVu-126" value="Account_ID" style="ellipse;whiteSpace=wrap;html=1;hachureGap=4;" vertex="1" parent="1">
          <mxGeometry x="170" y="-180" width="90" height="60" as="geometry" />
        </mxCell>
        <mxCell id="pdIDnBIP7ym01zkuTRVu-129" value="" style="endArrow=none;html=1;rounded=0;startSize=14;endSize=14;sourcePerimeterSpacing=8;targetPerimeterSpacing=8;curved=1;" edge="1" parent="1">
          <mxGeometry width="50" height="50" relative="1" as="geometry">
            <mxPoint x="190" y="-140" as="sourcePoint" />
            <mxPoint x="240" y="-140" as="targetPoint" />
          </mxGeometry>
        </mxCell>
        <mxCell id="pdIDnBIP7ym01zkuTRVu-130" value="" style="endArrow=none;html=1;rounded=0;startSize=14;endSize=14;sourcePerimeterSpacing=8;targetPerimeterSpacing=8;curved=1;" edge="1" parent="1">
          <mxGeometry width="50" height="50" relative="1" as="geometry">
            <mxPoint x="450" y="-210" as="sourcePoint" />
            <mxPoint x="470" y="-225" as="targetPoint" />
          </mxGeometry>
        </mxCell>
        <mxCell id="pdIDnBIP7ym01zkuTRVu-131" value="" style="endArrow=none;html=1;rounded=0;startSize=14;endSize=14;sourcePerimeterSpacing=8;targetPerimeterSpacing=8;curved=1;exitX=1;exitY=1;exitDx=0;exitDy=0;" edge="1" parent="1" source="pdIDnBIP7ym01zkuTRVu-118">
          <mxGeometry width="50" height="50" relative="1" as="geometry">
            <mxPoint x="420" y="-100" as="sourcePoint" />
            <mxPoint x="470" y="-150" as="targetPoint" />
          </mxGeometry>
        </mxCell>
        <mxCell id="pdIDnBIP7ym01zkuTRVu-132" value="" style="endArrow=none;html=1;rounded=0;startSize=14;endSize=14;sourcePerimeterSpacing=8;targetPerimeterSpacing=8;curved=1;entryX=0;entryY=0.25;entryDx=0;entryDy=0;" edge="1" parent="1" target="pdIDnBIP7ym01zkuTRVu-118">
          <mxGeometry width="50" height="50" relative="1" as="geometry">
            <mxPoint x="260" y="-230" as="sourcePoint" />
            <mxPoint x="310" y="-280" as="targetPoint" />
          </mxGeometry>
        </mxCell>
        <mxCell id="pdIDnBIP7ym01zkuTRVu-133" value="" style="endArrow=none;html=1;rounded=0;startSize=14;endSize=14;sourcePerimeterSpacing=8;targetPerimeterSpacing=8;curved=1;entryX=0;entryY=0.75;entryDx=0;entryDy=0;" edge="1" parent="1" target="pdIDnBIP7ym01zkuTRVu-118">
          <mxGeometry width="50" height="50" relative="1" as="geometry">
            <mxPoint x="250" y="-170" as="sourcePoint" />
            <mxPoint x="300" y="-220" as="targetPoint" />
          </mxGeometry>
        </mxCell>
        <mxCell id="pdIDnBIP7ym01zkuTRVu-136" value="" style="endArrow=none;html=1;rounded=0;startSize=14;endSize=14;targetPerimeterSpacing=8;curved=1;startArrow=none;" edge="1" parent="1" source="pdIDnBIP7ym01zkuTRVu-4" target="pdIDnBIP7ym01zkuTRVu-119">
          <mxGeometry width="50" height="50" relative="1" as="geometry">
            <mxPoint x="190" y="80" as="sourcePoint" />
            <mxPoint x="240" y="30" as="targetPoint" />
          </mxGeometry>
        </mxCell>
        <mxCell id="pdIDnBIP7ym01zkuTRVu-137" value="" style="endArrow=none;html=1;rounded=0;startSize=14;endSize=14;sourcePerimeterSpacing=8;targetPerimeterSpacing=8;curved=1;entryX=0.5;entryY=1;entryDx=0;entryDy=0;" edge="1" parent="1" target="pdIDnBIP7ym01zkuTRVu-118">
          <mxGeometry width="50" height="50" relative="1" as="geometry">
            <mxPoint x="370" y="-90" as="sourcePoint" />
            <mxPoint x="420" y="-140" as="targetPoint" />
          </mxGeometry>
        </mxCell>
        <mxCell id="pdIDnBIP7ym01zkuTRVu-138" value="" style="endArrow=none;html=1;rounded=0;startSize=14;endSize=14;sourcePerimeterSpacing=8;targetPerimeterSpacing=8;curved=1;entryX=0.75;entryY=1;entryDx=0;entryDy=0;exitX=0.25;exitY=0;exitDx=0;exitDy=0;" edge="1" parent="1" source="pdIDnBIP7ym01zkuTRVu-2" target="pdIDnBIP7ym01zkuTRVu-121">
          <mxGeometry width="50" height="50" relative="1" as="geometry">
            <mxPoint x="560" y="77.48" as="sourcePoint" />
            <mxPoint x="723.9058823529413" y="-50.00235294117648" as="targetPoint" />
          </mxGeometry>
        </mxCell>
        <mxCell id="pdIDnBIP7ym01zkuTRVu-140" value="Address" style="ellipse;whiteSpace=wrap;html=1;hachureGap=4;" vertex="1" parent="1">
          <mxGeometry x="70" y="-220" width="90" height="60" as="geometry" />
        </mxCell>
        <mxCell id="pdIDnBIP7ym01zkuTRVu-143" value="" style="endArrow=none;html=1;rounded=0;startSize=14;endSize=14;sourcePerimeterSpacing=8;targetPerimeterSpacing=8;curved=1;entryX=-0.035;entryY=0.604;entryDx=0;entryDy=0;entryPerimeter=0;" edge="1" parent="1" target="pdIDnBIP7ym01zkuTRVu-118">
          <mxGeometry width="50" height="50" relative="1" as="geometry">
            <mxPoint x="160" y="-190" as="sourcePoint" />
            <mxPoint x="210" y="-240" as="targetPoint" />
          </mxGeometry>
        </mxCell>
        <mxCell id="pdIDnBIP7ym01zkuTRVu-4" value="Employees" style="rounded=0;whiteSpace=wrap;html=1;hachureGap=4;" vertex="1" parent="1">
          <mxGeometry x="150" y="40" width="160" height="80" as="geometry" />
        </mxCell>
        <mxCell id="pdIDnBIP7ym01zkuTRVu-145" value="&quot;prefers&quot;" style="rhombus;whiteSpace=wrap;html=1;hachureGap=4;" vertex="1" parent="1">
          <mxGeometry x="390" y="180" width="60" height="60" as="geometry" />
        </mxCell>
        <mxCell id="pdIDnBIP7ym01zkuTRVu-146" value="" style="endArrow=none;html=1;rounded=0;startSize=14;endSize=14;sourcePerimeterSpacing=8;targetPerimeterSpacing=8;curved=1;exitX=1;exitY=0.5;exitDx=0;exitDy=0;" edge="1" parent="1" source="pdIDnBIP7ym01zkuTRVu-145">
          <mxGeometry width="50" height="50" relative="1" as="geometry">
            <mxPoint x="460" y="200" as="sourcePoint" />
            <mxPoint x="530" y="120" as="targetPoint" />
          </mxGeometry>
        </mxCell>
        <mxCell id="pdIDnBIP7ym01zkuTRVu-147" value="" style="endArrow=none;html=1;rounded=0;startSize=14;endSize=14;sourcePerimeterSpacing=8;targetPerimeterSpacing=8;curved=1;entryX=1;entryY=1;entryDx=0;entryDy=0;exitX=0;exitY=0;exitDx=0;exitDy=0;" edge="1" parent="1" source="pdIDnBIP7ym01zkuTRVu-145" target="pdIDnBIP7ym01zkuTRVu-4">
          <mxGeometry width="50" height="50" relative="1" as="geometry">
            <mxPoint x="380" y="180" as="sourcePoint" />
            <mxPoint x="430" y="130" as="targetPoint" />
          </mxGeometry>
        </mxCell>
        <mxCell id="pdIDnBIP7ym01zkuTRVu-148" value="" style="endArrow=none;html=1;rounded=0;startSize=14;endSize=14;sourcePerimeterSpacing=8;targetPerimeterSpacing=8;curved=1;entryX=0.564;entryY=0.883;entryDx=0;entryDy=0;entryPerimeter=0;exitX=0.25;exitY=0;exitDx=0;exitDy=0;" edge="1" parent="1" source="pdIDnBIP7ym01zkuTRVu-3" target="pdIDnBIP7ym01zkuTRVu-145">
          <mxGeometry width="50" height="50" relative="1" as="geometry">
            <mxPoint x="460" y="330" as="sourcePoint" />
            <mxPoint x="510" y="280" as="targetPoint" />
          </mxGeometry>
        </mxCell>
        <mxCell id="pdIDnBIP7ym01zkuTRVu-149" value="" style="rhombus;whiteSpace=wrap;html=1;hachureGap=4;" vertex="1" parent="1">
          <mxGeometry x="290" y="280" width="60" height="60" as="geometry" />
        </mxCell>
        <mxCell id="pdIDnBIP7ym01zkuTRVu-151" value="" style="endArrow=none;html=1;rounded=0;startSize=14;endSize=14;sourcePerimeterSpacing=8;targetPerimeterSpacing=8;curved=1;entryX=0;entryY=0;entryDx=0;entryDy=0;exitX=0.5;exitY=1;exitDx=0;exitDy=0;" edge="1" parent="1" source="pdIDnBIP7ym01zkuTRVu-4" target="pdIDnBIP7ym01zkuTRVu-149">
          <mxGeometry width="50" height="50" relative="1" as="geometry">
            <mxPoint x="240" y="310" as="sourcePoint" />
            <mxPoint x="290" y="260" as="targetPoint" />
          </mxGeometry>
        </mxCell>
        <mxCell id="pdIDnBIP7ym01zkuTRVu-152" value="" style="endArrow=none;html=1;rounded=0;startSize=14;endSize=14;sourcePerimeterSpacing=8;targetPerimeterSpacing=8;curved=1;exitX=1;exitY=0.5;exitDx=0;exitDy=0;entryX=0.866;entryY=1.001;entryDx=0;entryDy=0;entryPerimeter=0;" edge="1" parent="1" source="pdIDnBIP7ym01zkuTRVu-149" target="pdIDnBIP7ym01zkuTRVu-2">
          <mxGeometry width="50" height="50" relative="1" as="geometry">
            <mxPoint x="360" y="320" as="sourcePoint" />
            <mxPoint x="410" y="270" as="targetPoint" />
          </mxGeometry>
        </mxCell>
        <mxCell id="pdIDnBIP7ym01zkuTRVu-153" value="&quot;Appointment&quot;" style="text;html=1;strokeColor=none;fillColor=none;align=center;verticalAlign=middle;whiteSpace=wrap;rounded=0;hachureGap=4;" vertex="1" parent="1">
          <mxGeometry x="240" y="330" width="60" height="10" as="geometry" />
        </mxCell>
        <mxCell id="pdIDnBIP7ym01zkuTRVu-154" value="" style="endArrow=none;html=1;rounded=0;startSize=14;endSize=14;targetPerimeterSpacing=8;curved=1;entryX=1;entryY=1;entryDx=0;entryDy=0;exitX=1;exitY=0.25;exitDx=0;exitDy=0;startArrow=none;" edge="1" parent="1" target="pdIDnBIP7ym01zkuTRVu-149">
          <mxGeometry width="50" height="50" relative="1" as="geometry">
            <mxPoint x="455" y="417.5" as="sourcePoint" />
            <mxPoint x="400" y="350" as="targetPoint" />
          </mxGeometry>
        </mxCell>
        <mxCell id="pdIDnBIP7ym01zkuTRVu-155" value="Date" style="rounded=0;whiteSpace=wrap;html=1;hachureGap=4;" vertex="1" parent="1">
          <mxGeometry x="150" y="410" width="160" height="80" as="geometry" />
        </mxCell>
        <mxCell id="pdIDnBIP7ym01zkuTRVu-156" value="" style="endArrow=none;html=1;rounded=0;startSize=14;endSize=14;sourcePerimeterSpacing=8;targetPerimeterSpacing=8;curved=1;entryX=0.368;entryY=0.942;entryDx=0;entryDy=0;entryPerimeter=0;" edge="1" parent="1" target="pdIDnBIP7ym01zkuTRVu-149">
          <mxGeometry width="50" height="50" relative="1" as="geometry">
            <mxPoint x="260" y="410" as="sourcePoint" />
            <mxPoint x="310" y="360" as="targetPoint" />
          </mxGeometry>
        </mxCell>
        <mxCell id="pdIDnBIP7ym01zkuTRVu-157" value="" style="rhombus;whiteSpace=wrap;html=1;hachureGap=4;" vertex="1" parent="1">
          <mxGeometry x="160" y="280" width="60" height="60" as="geometry" />
        </mxCell>
        <mxCell id="pdIDnBIP7ym01zkuTRVu-159" value="" style="endArrow=none;html=1;rounded=0;startSize=14;endSize=14;sourcePerimeterSpacing=8;targetPerimeterSpacing=8;curved=1;entryX=0.5;entryY=1;entryDx=0;entryDy=0;exitX=0.25;exitY=0;exitDx=0;exitDy=0;" edge="1" parent="1" source="pdIDnBIP7ym01zkuTRVu-155" target="pdIDnBIP7ym01zkuTRVu-157">
          <mxGeometry width="50" height="50" relative="1" as="geometry">
            <mxPoint x="180" y="410" as="sourcePoint" />
            <mxPoint x="230" y="360" as="targetPoint" />
          </mxGeometry>
        </mxCell>
        <mxCell id="pdIDnBIP7ym01zkuTRVu-160" value="" style="endArrow=none;html=1;rounded=0;startSize=14;endSize=14;sourcePerimeterSpacing=8;targetPerimeterSpacing=8;curved=1;exitX=0.25;exitY=0;exitDx=0;exitDy=0;entryX=0.25;entryY=1;entryDx=0;entryDy=0;" edge="1" parent="1" target="pdIDnBIP7ym01zkuTRVu-4">
          <mxGeometry width="50" height="50" relative="1" as="geometry">
            <mxPoint x="189.41" y="280" as="sourcePoint" />
            <mxPoint x="190" y="130" as="targetPoint" />
          </mxGeometry>
        </mxCell>
        <mxCell id="pdIDnBIP7ym01zkuTRVu-161" value="&quot;Scheduled on&quot;" style="text;html=1;strokeColor=none;fillColor=none;align=center;verticalAlign=middle;whiteSpace=wrap;rounded=0;hachureGap=4;" vertex="1" parent="1">
          <mxGeometry x="100" y="280" width="80" height="30" as="geometry" />
        </mxCell>
        <mxCell id="pdIDnBIP7ym01zkuTRVu-162" value="(1,1)" style="text;html=1;strokeColor=none;fillColor=none;align=center;verticalAlign=middle;whiteSpace=wrap;rounded=0;hachureGap=4;" vertex="1" parent="1">
          <mxGeometry x="505" y="120" width="60" height="30" as="geometry" />
        </mxCell>
        <mxCell id="pdIDnBIP7ym01zkuTRVu-163" value="(1,1)" style="text;html=1;strokeColor=none;fillColor=none;align=center;verticalAlign=middle;whiteSpace=wrap;rounded=0;hachureGap=4;" vertex="1" parent="1">
          <mxGeometry x="590" y="120" width="60" height="30" as="geometry" />
        </mxCell>
        <mxCell id="pdIDnBIP7ym01zkuTRVu-164" value="(1,1)" style="text;html=1;strokeColor=none;fillColor=none;align=center;verticalAlign=middle;whiteSpace=wrap;rounded=0;hachureGap=4;" vertex="1" parent="1">
          <mxGeometry x="310" y="100" width="60" height="30" as="geometry" />
        </mxCell>
        <mxCell id="pdIDnBIP7ym01zkuTRVu-165" value="(1,1)" style="text;html=1;strokeColor=none;fillColor=none;align=center;verticalAlign=middle;whiteSpace=wrap;rounded=0;hachureGap=4;" vertex="1" parent="1">
          <mxGeometry x="280" y="120" width="60" height="30" as="geometry" />
        </mxCell>
        <mxCell id="pdIDnBIP7ym01zkuTRVu-166" value="(1,1)" style="text;html=1;strokeColor=none;fillColor=none;align=center;verticalAlign=middle;whiteSpace=wrap;rounded=0;hachureGap=4;" vertex="1" parent="1">
          <mxGeometry x="425" y="380" width="60" height="30" as="geometry" />
        </mxCell>
        <mxCell id="pdIDnBIP7ym01zkuTRVu-167" value="(1,1)" style="text;html=1;strokeColor=none;fillColor=none;align=center;verticalAlign=middle;whiteSpace=wrap;rounded=0;hachureGap=4;" vertex="1" parent="1">
          <mxGeometry x="485" y="380" width="60" height="30" as="geometry" />
        </mxCell>
        <mxCell id="pdIDnBIP7ym01zkuTRVu-168" value="(1,m)" style="text;html=1;strokeColor=none;fillColor=none;align=center;verticalAlign=middle;whiteSpace=wrap;rounded=0;hachureGap=4;" vertex="1" parent="1">
          <mxGeometry x="270" y="380" width="60" height="30" as="geometry" />
        </mxCell>
        <mxCell id="pdIDnBIP7ym01zkuTRVu-170" value="(1,1)" style="text;html=1;strokeColor=none;fillColor=none;align=center;verticalAlign=middle;whiteSpace=wrap;rounded=0;hachureGap=4;" vertex="1" parent="1">
          <mxGeometry x="220" y="120" width="60" height="30" as="geometry" />
        </mxCell>
        <mxCell id="pdIDnBIP7ym01zkuTRVu-172" value="" style="endArrow=none;html=1;rounded=0;startSize=14;endSize=14;sourcePerimeterSpacing=8;curved=1;entryX=1;entryY=1;entryDx=0;entryDy=0;exitX=0;exitY=0.25;exitDx=0;exitDy=0;" edge="1" parent="1" source="pdIDnBIP7ym01zkuTRVu-3">
          <mxGeometry width="50" height="50" relative="1" as="geometry">
            <mxPoint x="460" y="430" as="sourcePoint" />
            <mxPoint x="455" y="440" as="targetPoint" />
          </mxGeometry>
        </mxCell>
        <mxCell id="pdIDnBIP7ym01zkuTRVu-174" value="(1,1)" style="text;html=1;strokeColor=none;fillColor=none;align=center;verticalAlign=middle;whiteSpace=wrap;rounded=0;hachureGap=4;" vertex="1" parent="1">
          <mxGeometry x="410" y="410" width="60" height="30" as="geometry" />
        </mxCell>
        <mxCell id="pdIDnBIP7ym01zkuTRVu-175" value="(1,m)" style="text;html=1;strokeColor=none;fillColor=none;align=center;verticalAlign=middle;whiteSpace=wrap;rounded=0;hachureGap=4;" vertex="1" parent="1">
          <mxGeometry x="140" y="140" width="60" height="30" as="geometry" />
        </mxCell>
        <mxCell id="pdIDnBIP7ym01zkuTRVu-177" value="" style="endArrow=none;html=1;rounded=0;startSize=14;endSize=14;sourcePerimeterSpacing=8;targetPerimeterSpacing=8;curved=1;entryX=0;entryY=0.75;entryDx=0;entryDy=0;" edge="1" parent="1" target="pdIDnBIP7ym01zkuTRVu-4">
          <mxGeometry width="50" height="50" relative="1" as="geometry">
            <mxPoint x="115" y="140" as="sourcePoint" />
            <mxPoint x="165" y="90" as="targetPoint" />
          </mxGeometry>
        </mxCell>
        <mxCell id="pdIDnBIP7ym01zkuTRVu-178" value="(1,m)" style="text;html=1;strokeColor=none;fillColor=none;align=center;verticalAlign=middle;whiteSpace=wrap;rounded=0;hachureGap=4;" vertex="1" parent="1">
          <mxGeometry x="130" y="370" width="60" height="30" as="geometry" />
        </mxCell>
      </root>
    </mxGraphModel>
  </diagram>
</mxfile>
